<svg width="90" height="64" viewBox="0 0 90 64" fill="none" xmlns="http://www.w3.org/2000/svg">
<path d="M19.9579 0C8.95247 0 0 8.95247 0 19.9581C0 30.575 8.33175 39.2829 18.8003 39.8845C18.9816 41.8414 18.8456 47.1684 13.741 54.5787C13.3552 55.1377 13.4252 55.8915 13.9044 56.3708C15.9933 58.4596 17.2842 59.7752 18.1877 60.6953C19.3702 61.8983 19.91 62.4476 20.6996 63.1645C20.9673 63.4075 21.3051 63.5297 21.6444 63.5297C21.9739 63.5297 22.3021 63.4144 22.5672 63.1851C31.462 55.4452 41.3429 39.4532 39.9133 19.8564C39.0756 8.35102 30.6834 0 19.9579 0ZM21.6581 60.2023C21.275 59.8247 20.8382 59.3797 20.1942 58.7246C19.4115 57.9268 18.3375 56.8336 16.7088 55.1994C22.9037 45.6536 21.7336 38.8545 21.2214 37.8794C20.9783 37.4167 20.4798 37.1049 19.9579 37.1049C10.5043 37.1049 2.8125 29.4131 2.8125 19.9581C2.8125 10.5043 10.5043 2.8125 19.9579 2.8125C29.1673 2.8125 36.3798 10.0662 37.109 20.0596C38.7157 42.101 25.616 56.412 21.6581 60.2023Z" fill="#F2FAFF"/>
<path d="M89.8585 20.0917V20.0903C89.018 8.58637 80.6245 0.235352 69.9018 0.235352C58.8963 0.235352 49.9424 9.18782 49.9424 20.1934C49.9424 30.8103 58.2755 39.5182 68.7455 40.1198C68.9268 42.0754 68.7894 47.3996 63.6835 54.814C63.2977 55.373 63.3677 56.1269 63.847 56.6061C65.9275 58.6867 67.2156 59.9996 68.1193 60.9183C69.3071 62.1295 69.8497 62.6816 70.6434 63.4011C70.9111 63.6429 71.2503 63.7651 71.5882 63.7651C71.9178 63.7651 72.2461 63.6498 72.511 63.419C81.4058 55.6791 91.2867 39.6873 89.8585 20.0917ZM71.6019 60.4376C71.216 60.0572 70.7753 59.6096 70.1256 58.9477C69.3429 58.151 68.2731 57.0608 66.6512 55.4347C72.8461 45.8876 71.6775 39.0899 71.1666 38.1148C70.9235 37.6534 70.4237 37.3402 69.9018 37.3402C60.4466 37.3402 52.7549 29.6485 52.7549 20.1934C52.7549 10.7396 60.4466 3.04785 69.9018 3.04785C79.1097 3.04785 86.3236 10.3016 87.0542 20.2964V20.2949C88.6595 42.3335 75.5597 56.6474 71.6019 60.4376Z" fill="#F2FAFF"/>
</svg>
