<svg width="194" height="123" viewBox="0 0 194 123" fill="none" xmlns="http://www.w3.org/2000/svg">
<rect width="194" height="123" fill="#D9D9D9"/>
<path d="M88.3444 55.16V67H86.1044V55.16H88.3444ZM91.6935 57.08C91.2988 57.08 90.9682 56.9573 90.7015 56.712C90.4455 56.456 90.3175 56.1413 90.3175 55.768C90.3175 55.3947 90.4455 55.0853 90.7015 54.84C90.9682 54.584 91.2988 54.456 91.6935 54.456C92.0882 54.456 92.4135 54.584 92.6695 54.84C92.9362 55.0853 93.0695 55.3947 93.0695 55.768C93.0695 56.1413 92.9362 56.456 92.6695 56.712C92.4135 56.9573 92.0882 57.08 91.6935 57.08ZM92.7975 58.136V67H90.5575V58.136H92.7975ZM97.2506 59.432C97.5386 59.0053 97.9333 58.6587 98.4346 58.392C98.9466 58.1253 99.5279 57.992 100.179 57.992C100.936 57.992 101.619 58.1787 102.227 58.552C102.845 58.9253 103.331 59.4587 103.683 60.152C104.045 60.8347 104.227 61.6293 104.227 62.536C104.227 63.4427 104.045 64.248 103.683 64.952C103.331 65.6453 102.845 66.184 102.227 66.568C101.619 66.952 100.936 67.144 100.179 67.144C99.5173 67.144 98.9359 67.016 98.4346 66.76C97.9439 66.4933 97.5493 66.152 97.2506 65.736V67H95.0106V55.16H97.2506V59.432ZM101.939 62.536C101.939 62.0027 101.827 61.544 101.603 61.16C101.389 60.7653 101.101 60.4667 100.739 60.264C100.387 60.0613 100.003 59.96 99.5866 59.96C99.1813 59.96 98.7973 60.0667 98.4346 60.28C98.0826 60.4827 97.7946 60.7813 97.5706 61.176C97.3573 61.5707 97.2506 62.0347 97.2506 62.568C97.2506 63.1013 97.3573 63.5653 97.5706 63.96C97.7946 64.3547 98.0826 64.6587 98.4346 64.872C98.7973 65.0747 99.1813 65.176 99.5866 65.176C100.003 65.176 100.387 65.0693 100.739 64.856C101.101 64.6427 101.389 64.3387 101.603 63.944C101.827 63.5493 101.939 63.08 101.939 62.536ZM109.918 59.976H108.366V67H106.094V59.976H105.086V58.136H106.094V57.688C106.094 56.6 106.404 55.8 107.022 55.288C107.641 54.776 108.574 54.536 109.822 54.568V56.456C109.278 56.4453 108.9 56.536 108.686 56.728C108.473 56.92 108.366 57.2667 108.366 57.768V58.136H109.918V59.976ZM113.978 59.976V64.264C113.978 64.5627 114.047 64.7813 114.186 64.92C114.335 65.048 114.581 65.112 114.922 65.112H115.962V67H114.554C112.666 67 111.722 66.0827 111.722 64.248V59.976H110.666V58.136H111.722V55.944H113.978V58.136H115.962V59.976H113.978Z" fill="#1E1E1E"/>
<path d="M78.5623 54C78.616 53.6936 78.602 53.379 78.5212 53.0786C78.4405 52.7781 78.2949 52.499 78.0948 52.2607C77.8947 52.0225 77.6449 51.8309 77.3628 51.6995C77.0808 51.5681 76.7735 51.5 76.4623 51.5H65.5383C65.2272 51.5 64.9198 51.5681 64.6378 51.6995C64.3558 51.8309 64.106 52.0225 63.9058 52.2607C63.7057 52.499 63.5602 52.7781 63.4794 53.0786C63.3986 53.379 63.3846 53.6936 63.4383 54M76.5003 51.5C76.5283 51.24 76.5433 51.111 76.5433 51.004C76.5444 50.5097 76.3624 50.0325 76.0324 49.6645C75.7024 49.2964 75.2478 49.0637 74.7563 49.011C74.6503 49 74.5203 49 74.2603 49H67.7403C67.4803 49 67.3493 49 67.2433 49.011C66.7518 49.0637 66.2972 49.2964 65.9672 49.6645C65.6373 50.0325 65.4552 50.5097 65.4563 51.004C65.4563 51.111 65.4703 51.241 65.4993 51.5" stroke="#282C33" stroke-width="1.5"/>
<path d="M74.0003 65H68.0003M80.1943 63.793C79.8443 66.273 79.6693 67.514 78.7723 68.257C77.8753 69 76.5523 69 73.9053 69H68.0953C65.4493 69 64.1253 69 63.2283 68.257C62.3313 67.514 62.1563 66.274 61.8063 63.793L61.3843 60.793C60.9373 57.629 60.7143 56.048 61.6623 55.023C62.6103 54 64.2983 54 67.6723 54H74.3283C77.7023 54 79.3903 54 80.3383 55.024C81.0863 55.833 81.1053 56.99 80.8593 59" stroke="#282C33" stroke-width="1.5" stroke-linecap="round"/>
</svg>
