<svg width="90" height="64" viewBox="0 0 90 64" fill="none" xmlns="http://www.w3.org/2000/svg">
<path d="M19.9594 0.235352C8.95393 0.235352 0.00146484 9.18782 0.00146484 20.1934C0.00146484 30.8103 8.33321 39.5182 18.8018 40.1198C18.983 42.0768 18.847 47.4038 13.7425 54.814C13.3566 55.373 13.4267 56.1269 13.9059 56.6061C15.9947 58.695 17.2857 60.0105 18.1892 60.9306C19.3717 62.1337 19.9114 62.683 20.701 63.3999C20.9688 63.6429 21.3066 63.7651 21.6459 63.7651C21.9754 63.7651 22.3036 63.6498 22.5687 63.4204C31.4635 55.6806 41.3444 39.6885 39.9148 20.0917C39.0771 8.58637 30.6849 0.235352 19.9594 0.235352ZM21.6595 60.4376C21.2765 60.06 20.8397 59.6151 20.1956 58.9599C19.4129 58.1622 18.339 57.0689 16.7102 55.4347C22.9052 45.889 21.7351 39.0899 21.2229 38.1148C20.9798 37.652 20.4812 37.3402 19.9594 37.3402C10.5057 37.3402 2.81396 29.6485 2.81396 20.1934C2.81396 10.7396 10.5057 3.04785 19.9594 3.04785C29.1688 3.04785 36.3813 10.3016 37.1104 20.2949C38.7172 42.3364 25.6174 56.6474 21.6595 60.4376Z" fill="#445964"/>
<path d="M89.86 20.0917V20.0903C89.0194 8.58637 80.626 0.235352 69.9033 0.235352C58.8977 0.235352 49.9438 9.18782 49.9438 20.1934C49.9438 30.8103 58.277 39.5182 68.7469 40.1198C68.9282 42.0754 68.7908 47.3996 63.685 54.814C63.2991 55.373 63.3692 56.1269 63.8484 56.6061C65.929 58.6867 67.2171 59.9996 68.1207 60.9183C69.3086 62.1295 69.8511 62.6816 70.6448 63.4011C70.9126 63.6429 71.2518 63.7651 71.5897 63.7651C71.9193 63.7651 72.2475 63.6498 72.5125 63.419C81.4073 55.6791 91.2881 39.6873 89.86 20.0917ZM71.6033 60.4376C71.2174 60.0572 70.7767 59.6096 70.127 58.9477C69.3443 58.151 68.2746 57.0608 66.6526 55.4347C72.8476 45.8876 71.679 39.0899 71.1681 38.1148C70.9249 37.6534 70.4252 37.3402 69.9033 37.3402C60.4481 37.3402 52.7563 29.6485 52.7563 20.1934C52.7563 10.7396 60.4481 3.04785 69.9033 3.04785C79.1111 3.04785 86.3251 10.3016 87.0556 20.2964V20.2949C88.661 42.3335 75.5612 56.6474 71.6033 60.4376Z" fill="#445964"/>
</svg>
